Patient4_TMGait_0pt3_01_right_27_EMG.mot
version=1
nRows=26
nColumns=33
inDegrees=no
endheader
time	1LAddLong	2LGlutMax	3LGlutMed	4LIliopsoas	5LSemiMemb	6LBicFemLong	7LRecFem	8LVastMed	9LVastLat	10LGasMed	11LTibAnt	12lTibPost	13LPeroneusLong	14LSol	15LExtDigLong	16LFlexDigLong	17RAddLong	18RGlutMax	19RGlutMed	20RIliopsoas	21RSemiMemb	22RBicFemLong	23RRecFem	24RVastMed	25RVastLat	26RGasMed	27RTibAnt	28RTibPost	29RPeroneusLong	30RSol	31RExtDigLong	32RFlexDigLong
50.587	-0.001984	-0.26138	-0.011749	0.007019	0.008698	-0.001984	-0.007172	0.005951	-0.00412	0.22171	0.009003	0.27023	0.15808	1.501	0.024414	-0.010834	-0.041809	0.27466	0.17151	0.30197	0.13123	0.14786	-0.072937	0.19318	0.10681	-0.062561	-0.066833	-0.091705	0.53268	-0.28229	-0.004578	-0.020752
50.588	0.003357	-0.26077	-0.002594	0.011444	0.014954	-0.001068	0.001373	0.009155	0.001831	0.22003	-0.000763	-0.13534	0.21729	1.8565	0.016632	0.1503	-0.038605	0.20523	0.32944	0.15259	0.02243	0.076447	-0.096741	0.18387	0.11398	-0.04837	-0.069885	0.002441	0.65689	-0.3508	-0.002594	-0.023499
50.589	0.001221	-0.2475	0.018463	0.017395	0.007172	0.004578	0.004425	-0.001068	-0.012665	0.19898	-0.003357	-0.051117	-0.018005	0.58319	-0.084686	0.10712	-0.022125	0.049286	0.27817	0.017395	-0.13947	-0.025024	-0.024109	0.14069	0.10452	0.026855	-0.024567	0.21866	-0.16876	-0.10925	-0.003052	-0.013123
50.59	0.003662	-0.24323	-0.005035	0.004883	0.011597	0.010986	0.002594	0.005493	-0.014954	0.15335	0.020447	-0.28656	-0.19043	-1.2451	-0.14801	-0.009918	-0.009003	0.12924	0.31067	-0.051117	0.040283	-0.034943	0.007477	0.088043	0.1004	0.051117	0.035248	0.084076	0.097961	-0.011444	-0.001221	-0.019379
50.591	-0.002747	-0.2388	0.013275	0.002136	0.000305	-0.001831	-0.002899	0.002136	-0.028992	0.068512	0.014038	0.069275	-0.10483	-1.4404	-0.121	-0.092773	0.045776	0.13443	0.073242	-0.036163	0.14984	0.001373	0.045624	0.055389	0.090027	0.049896	0.037537	-0.033875	-0.19226	0.010681	-0.000305	-0.016632
50.592	-0.00351	-0.24353	0.020142	0.007629	0.008087	-0.007782	0.006104	-0.000153	-0.017395	0.003052	-0.007629	0.043182	0.036926	-1.4268	0.005188	0.03006	0.065308	0.1831	0.099792	0.01297	0.039368	-0.038147	-0.000305	-0.02655	0.072021	0.048676	0.00351	0.000916	0.019836	0.10986	-0.00351	-0.023193
50.593	-0.066223	-0.2298	0.000305	0.005341	0	0.003052	-0.038147	0.000763	0.003204	-0.063171	-0.009308	-0.041809	0.14511	-0.42389	0.14236	0.079498	0.059814	0.44174	0.043945	0.038757	-0.20676	0.024872	0.033569	-0.096436	0.05249	0.023804	-0.026855	-0.00946	0.26428	-0.008545	-0.001526	-0.013123
50.594	0.013733	-0.24399	0.00412	0.015869	0.007172	0.006866	-0.029449	0.000916	0.022583	-0.096436	-0.003967	-0.11047	0.14038	0.057678	0.10971	0.015564	0.037231	0.58991	0.14084	0.04837	-0.022278	0.020294	0.021057	-0.10574	0.038757	0.005035	0.075531	-0.00885	0.76736	-0.031128	-0.003052	-0.006561
50.595	-0.078125	-0.19562	0.016174	0.024414	0.004425	0.006104	-0.022888	0.008698	0.007477	-0.1413	-0.003204	-0.069122	-0.039368	0.1506	0.030212	-0.0737	-0.013885	0.62637	0.009155	-0.029602	0.034637	0.061188	0.018311	-0.037231	0.051117	0.003357	-0.016937	-0.011444	1.0835	-0.020142	0.000305	-0.013885
50.596	-0.026093	-0.14435	0.011292	0.00946	0.005341	0.004272	-0.022583	0.005951	-0.001068	-0.1268	0.013428	-0.047302	0.03006	-0.12512	-0.006714	-0.038605	-0.054779	0.68192	0.36392	-0.016937	-0.37689	0.20966	-0.025787	0.04715	0.055695	-0.041656	0.05661	-0.014343	-0.95718	0.049286	-0.001526	-0.018768
50.597	-0.019836	-0.059204	0.017395	-0.001221	0.007629	-0.003357	-0.005493	0.006866	0.005493	-0.099792	0.018463	-0.039215	-0.013275	-0.13397	-0.013885	-0.034637	-0.073853	0.59387	0.44037	-0.040436	-0.20569	0.42755	-0.02594	0.12619	0.045929	-0.063934	0.023956	-0.024109	-0.59158	0.071564	-0.001984	-0.005798
50.598	0.01358	-0.046844	0.041504	-0.007782	0.006256	-0.018768	-0.028534	0.00885	-0.004883	-0.093384	0.004883	-0.042114	-0.17014	0.042419	-0.02594	-0.045929	-0.045166	0.55832	-0.057831	-0.020752	0.20844	0.42099	-0.016632	0.088654	0.052338	-0.082855	-0.09201	-0.050354	0.018768	0.10651	-0.007324	-0.005798
50.599	-0.003815	0.02594	0.029297	0.010681	0.007782	-0.002747	-0.021362	0.00946	0.003052	-0.077515	0.001373	-0.032501	-0.080719	0.2417	-0.034943	-0.023346	-0.03479	0.50568	-0.048828	-0.03418	0.20355	0.2179	-0.007324	0.071716	0.03479	-0.10132	-0.063324	-0.014648	0.39398	0.014343	-0.003662	-0.00885
50.6	-0.000916	0.080414	0.040588	0.005951	0.009155	-0.012665	-0.020599	0.013885	-0.001984	-0.058289	0.009766	-0.029602	-0.014648	0.31021	-0.025787	-0.032806	-0.023499	0.50781	0.23956	-0.014648	0.076294	0.11337	-0.030365	0.0354	0.042419	-0.099487	0.008392	0.035706	1.0316	0.003204	-0.004272	-0.014496
50.601	0.003052	0.14145	0.05249	-0.001373	-0.001068	-0.006866	-0.025177	0.000916	0.010834	-0.068054	-0.00061	-0.022278	-0.045624	0.11444	-0.00412	-0.023193	-0.002136	0.54321	-0.13962	-0.015106	-0.052032	0.14786	0.016937	-0.046539	0.036163	-0.1152	0.061951	0.055237	0.95993	-0.051117	-0.003204	-0.009613
50.602	-0.005188	0.16876	0.058289	-0.00473	0.009918	-0.01236	-0.037994	0.000153	0.026245	-0.090942	0.009308	-0.042572	-0.072327	0.031433	-0.009308	-0.002289	0.032806	0.45364	-0.5545	0.032654	-0.017548	0.19318	0.086365	-0.08606	0.006104	-0.11566	0.004578	-0.00351	-0.081024	0.023041	-0.002136	-0.005951
50.603	-0.005646	0.15991	0.064697	0.001678	0.010223	-0.011292	-0.015564	-0.002594	0.010071	-0.066681	0.003967	-0.041046	-0.096283	0.05249	-0.009918	-0.023346	0.063019	0.38452	-0.56534	0.027771	-0.10132	0.23346	0.14984	-0.098572	-0.001373	0.070496	-0.103	0.019836	-0.34775	0.067291	-0.00412	-0.013428
50.604	0.00351	0.21759	0.070801	0.007935	0.009308	-0.023346	-0.033417	0.013885	0.00885	-0.037842	0.005188	-0.039215	-0.071106	0.09964	-0.01236	-0.042572	0.037689	0.37247	-0.38071	-0.003357	0.046844	0.44784	0.094452	-0.037537	0.006866	0.098419	-0.05249	-0.001678	-0.47852	0	0.001068	-0.014038
50.605	-0.002136	0.27863	0.075073	0.013275	0.014801	-0.003815	-0.011444	0.001221	0.018616	-0.022888	0.000916	-0.03006	-0.066528	0.14999	0.010529	-0.023651	0.007019	0.57541	0.11612	-0.088806	0.020752	0.39169	0.084686	0.019989	0.015717	0.049896	-0.033875	-0.080719	-0.84701	-0.097961	-0.000458	-0.018311
50.606	0.006409	0.31296	0.075226	0.019531	0.010071	-0.007629	-0.003815	-0.003357	0.021515	-0.027771	0	-0.016022	-0.028839	0.112	0.031586	0.038452	-0.046997	0.64743	0.59128	-0.06073	0.092468	0.34653	-0.031433	0.055084	0.032501	0.054321	-0.044403	0.004578	-0.66513	-0.088196	0	-0.015106
50.607	-0.000153	0.34241	0.085907	0.00061	0.010529	-0.009918	-0.017395	-0.001068	0.022125	-0.11444	-0.004883	0.02121	-0.082855	0.048218	0.036621	0.059509	-0.019836	0.80154	0.53848	-0.054169	-0.021362	0.14923	-0.14374	-0.001984	0.057526	0.005188	-0.028687	0.063019	0.12817	-0.1561	-0.002899	-0.013733
50.608	-0.002594	0.42435	0.079346	0.010681	0.007935	-0.015411	-0.014801	-0.003662	0.010376	-0.20905	0.00351	-0.032806	-0.25314	0.10712	0.041656	0.014191	-0.007629	0.87524	0.43243	-0.071411	-0.026093	0.21423	-0.032654	-0.010529	0.031738	-0.10346	-0.084076	-0.014954	0.44861	-0.20874	-0.001526	-0.012665
50.609	0.002289	0.43991	0.066833	0.001526	0.000153	-0.002594	-0.025177	0.001526	0.018616	-0.091095	0.00351	-0.035858	-0.31632	0.44174	0.001526	0.001373	-0.017242	0.84274	0.18265	-0.05188	0.18646	0.11093	-0.068817	0.071106	0.070343	-0.12878	0.003204	-0.045319	0.49439	-0.30167	-0.001068	-0.010376
50.61	-0.003815	0.47562	0.073547	0.006104	0.009003	-0.005646	-0.034943	0.002289	0.011292	0.29251	-0.017548	0.016937	-0.18723	0.88028	-0.051575	-0.002441	-0.020752	0.70801	-0.072021	0.052338	0.23178	-0.15472	-0.092468	0.10788	0.10346	-0.063477	-0.035095	-0.061646	0.62118	-0.093994	-0.000458	0.00061
50.611	0.003052	0.53665	0.062714	0.007782	0.003204	-0.015106	-0.035095	0.003357	0.018921	0.23193	0.020752	-0.08606	0.012817	0.64041	-0.047302	0.022278	-0.016785	0.5275	0.088806	0.082855	-0.1059	-0.065155	-0.041504	0.061493	0.11124	0.13245	-0.01358	-0.037079	-0.67703	-0.043182	-0.003052	-0.002747
50.612	-0.008392	0.49103	0.053864	0.004272	0.011749	-0.027618	-0.02655	-0.000916	0.012207	-0.05722	-0.02121	0.10101	0.097504	-0.030212	-0.055237	0.045471	0.017242	0.42938	0.04776	0.11078	0.009155	-0.081329	0.038605	-0.008392	0.061188	0.11353	0.045013	0.029297	-0.82611	-0.074463	-0.001831	-0.003815
